<svg xmlns="http://www.w3.org/2000/svg" viewBox="0 0 200 120" width="200" height="120">
<!-- BABYLAND — выражение «sad».
     Накладка на ПУСТОЕ лицо базы. Пять выражений нельзя генерировать: пять
     генераций дадут пять разных девочек. Нарисованная накладка садится по
     одному якорю (generation.face_anchor) и совпадает всегда.
     веки опущены, внутренние концы бровей подняты — «домиком» -->
<style>
  .ln { fill: none; stroke: #43303a; stroke-width: 5; stroke-linecap: round; stroke-linejoin: round; }
  .eye { fill: #ffffff; stroke: #43303a; stroke-width: 5; }
  .pup { fill: #43303a; }
  .hi  { fill: #ffffff; }
  .lip { fill: #e0567f; stroke: #43303a; stroke-width: 4.5; stroke-linejoin: round; }
</style>
<path class="ln" d="M44,14 Q62,24 80,20"/>
  <path class="ln" d="M120,20 Q138,24 156,14"/>
  <ellipse class="eye" cx="62" cy="50" rx="20" ry="21"/>
  <ellipse class="eye" cx="138" cy="50" rx="20" ry="21"/>
  <circle class="pup" cx="62" cy="54" r="10"/>
  <circle class="pup" cx="138" cy="54" r="10"/>
  <path class="ln" d="M42,42 Q62,34 82,42"/>
  <path class="ln" d="M118,42 Q138,34 158,42"/>
  <path class="ln" d="M44,40 l-12.0,-8.0"/>
  <path class="ln" d="M44,47 l-14.0,-4.0"/>
  <path class="ln" d="M44,54 l-14.0,0.5"/>
  <path class="ln" d="M156,40 l12.0,-8.0"/>
  <path class="ln" d="M156,47 l14.0,-4.0"/>
  <path class="ln" d="M156,54 l14.0,0.5"/>
  <path class="lip" d="M84,100 Q100,88 116,100 Q100,96 84,100 Z"/>
</svg>
