<svg xmlns="http://www.w3.org/2000/svg" viewBox="0 0 200 120" width="200" height="120">
<!-- BABYLAND — выражение «happy».
     Накладка на ПУСТОЕ лицо базы. Пять выражений нельзя генерировать: пять
     генераций дадут пять разных девочек. Нарисованная накладка садится по
     одному якорю (generation.face_anchor) и совпадает всегда.
     глаза круглые, улыбка ровная — состояние по умолчанию -->
<style>
  .ln { fill: none; stroke: #43303a; stroke-width: 5; stroke-linecap: round; stroke-linejoin: round; }
  .eye { fill: #ffffff; stroke: #43303a; stroke-width: 5; }
  .pup { fill: #43303a; }
  .hi  { fill: #ffffff; }
  .lip { fill: #e0567f; stroke: #43303a; stroke-width: 4.5; stroke-linejoin: round; }
</style>
<path class="ln" d="M44,22 Q62,12 80,20"/>
  <path class="ln" d="M120,20 Q138,12 156,22"/>
  <ellipse class="eye" cx="62" cy="48" rx="21" ry="25"/>
  <ellipse class="eye" cx="138" cy="48" rx="21" ry="25"/>
  <circle class="pup" cx="62" cy="50" r="11"/>
  <circle class="pup" cx="138" cy="50" r="11"/>
  <circle class="hi" cx="57" cy="44" r="4"/>
  <circle class="hi" cx="133" cy="44" r="4"/>
  <path class="ln" d="M44,40 l-12.0,-8.0"/>
  <path class="ln" d="M44,47 l-14.0,-4.0"/>
  <path class="ln" d="M44,54 l-14.0,0.5"/>
  <path class="ln" d="M156,40 l12.0,-8.0"/>
  <path class="ln" d="M156,47 l14.0,-4.0"/>
  <path class="ln" d="M156,54 l14.0,0.5"/>
  <path class="lip" d="M82,92 Q100,106 118,92 Q100,98 82,92 Z"/>
</svg>
